<mxfile host="app.diagrams.net" agent="Mozilla/5.0 (Windows NT 10.0; Win64; x64) AppleWebKit/537.36 (KHTML, like Gecko) Chrome/131.0.0.0 Safari/537.36" version="25.0.3">
  <diagram name="Halaman-1" id="fs4Kn1NmdmB1nm-XhJol">
    <mxGraphModel dx="1050" dy="557" grid="1" gridSize="10" guides="1" tooltips="1" connect="1" arrows="1" fold="1" page="1" pageScale="1" pageWidth="827" pageHeight="1169" math="0" shadow="0">
      <root>
        <mxCell id="0" />
        <mxCell id="1" parent="0" />
        <mxCell id="B_dHMctAkPxwuk1RRskJ-1" value="Sistem&amp;nbsp;&lt;div&gt;Informasi&lt;/div&gt;&lt;div&gt;Perpustakaan&lt;/div&gt;" style="rounded=0;whiteSpace=wrap;html=1;" vertex="1" parent="1">
          <mxGeometry x="320" y="150" width="130" height="70" as="geometry" />
        </mxCell>
        <mxCell id="B_dHMctAkPxwuk1RRskJ-2" value="Petugas" style="rounded=1;whiteSpace=wrap;html=1;" vertex="1" parent="1">
          <mxGeometry x="80" y="40" width="120" height="40" as="geometry" />
        </mxCell>
        <mxCell id="B_dHMctAkPxwuk1RRskJ-3" value="" style="endArrow=none;html=1;rounded=0;entryX=0.5;entryY=1;entryDx=0;entryDy=0;" edge="1" parent="1" target="B_dHMctAkPxwuk1RRskJ-2">
          <mxGeometry width="50" height="50" relative="1" as="geometry">
            <mxPoint x="140" y="140" as="sourcePoint" />
            <mxPoint x="140" y="90" as="targetPoint" />
          </mxGeometry>
        </mxCell>
        <mxCell id="B_dHMctAkPxwuk1RRskJ-4" value="CRUD Anggota&lt;div&gt;CRUD Peminjaman Buku&lt;/div&gt;&lt;div&gt;CRUD Pengembalian Buku&lt;/div&gt;&lt;div&gt;Generator Laporan&lt;/div&gt;" style="text;html=1;align=center;verticalAlign=middle;whiteSpace=wrap;rounded=0;" vertex="1" parent="1">
          <mxGeometry x="55" y="160" width="170" height="30" as="geometry" />
        </mxCell>
        <mxCell id="B_dHMctAkPxwuk1RRskJ-5" value="" style="endArrow=classic;html=1;rounded=0;" edge="1" parent="1">
          <mxGeometry width="50" height="50" relative="1" as="geometry">
            <mxPoint x="230" y="180" as="sourcePoint" />
            <mxPoint x="320" y="180" as="targetPoint" />
          </mxGeometry>
        </mxCell>
        <mxCell id="B_dHMctAkPxwuk1RRskJ-6" value="" style="endArrow=none;html=1;rounded=0;" edge="1" parent="1">
          <mxGeometry width="50" height="50" relative="1" as="geometry">
            <mxPoint x="450" y="180" as="sourcePoint" />
            <mxPoint x="550" y="180" as="targetPoint" />
          </mxGeometry>
        </mxCell>
        <mxCell id="B_dHMctAkPxwuk1RRskJ-7" value="Lihat Laporan" style="text;html=1;align=center;verticalAlign=middle;whiteSpace=wrap;rounded=0;" vertex="1" parent="1">
          <mxGeometry x="540" y="160" width="100" height="40" as="geometry" />
        </mxCell>
        <mxCell id="B_dHMctAkPxwuk1RRskJ-8" value="" style="endArrow=classic;html=1;rounded=0;exitX=0.604;exitY=1.085;exitDx=0;exitDy=0;exitPerimeter=0;" edge="1" parent="1" source="B_dHMctAkPxwuk1RRskJ-7">
          <mxGeometry width="50" height="50" relative="1" as="geometry">
            <mxPoint x="390" y="320" as="sourcePoint" />
            <mxPoint x="600" y="260" as="targetPoint" />
          </mxGeometry>
        </mxCell>
        <mxCell id="B_dHMctAkPxwuk1RRskJ-9" value="Kepala&lt;div&gt;Perpustakaan&lt;/div&gt;" style="rounded=1;whiteSpace=wrap;html=1;" vertex="1" parent="1">
          <mxGeometry x="540" y="260" width="120" height="60" as="geometry" />
        </mxCell>
        <mxCell id="B_dHMctAkPxwuk1RRskJ-10" value="" style="endArrow=classic;html=1;rounded=0;entryX=0.452;entryY=1.026;entryDx=0;entryDy=0;entryPerimeter=0;" edge="1" parent="1" target="B_dHMctAkPxwuk1RRskJ-1">
          <mxGeometry width="50" height="50" relative="1" as="geometry">
            <mxPoint x="379" y="270" as="sourcePoint" />
            <mxPoint x="440" y="270" as="targetPoint" />
          </mxGeometry>
        </mxCell>
        <mxCell id="B_dHMctAkPxwuk1RRskJ-11" value="Pendaftaran&lt;div&gt;Input Peminjaman Buku&lt;/div&gt;&lt;div&gt;Input Pengembalian Buku&lt;/div&gt;" style="text;html=1;align=center;verticalAlign=middle;whiteSpace=wrap;rounded=0;" vertex="1" parent="1">
          <mxGeometry x="260" y="270" width="140" height="30" as="geometry" />
        </mxCell>
        <mxCell id="B_dHMctAkPxwuk1RRskJ-12" value="Anggota" style="rounded=1;whiteSpace=wrap;html=1;" vertex="1" parent="1">
          <mxGeometry x="110" y="270" width="90" height="40" as="geometry" />
        </mxCell>
        <mxCell id="B_dHMctAkPxwuk1RRskJ-16" value="" style="endArrow=none;html=1;rounded=0;" edge="1" parent="1">
          <mxGeometry width="50" height="50" relative="1" as="geometry">
            <mxPoint x="200" y="290" as="sourcePoint" />
            <mxPoint x="250" y="290" as="targetPoint" />
          </mxGeometry>
        </mxCell>
      </root>
    </mxGraphModel>
  </diagram>
</mxfile>
